<svg xmlns="http://www.w3.org/2000/svg" xmlns:xlink="http://www.w3.org/1999/xlink" height="124" viewBox="0 0 24 124" width="24"><svg height="16" viewBox="0 0 16 16" width="16" x="4" y="4"><rect x="1" y="1" width="14" height="14" rx="7" fill="#08A0F7" stroke="FFFFFF" stroke-width="2"/><path d="M6.17157 8.32843L7.58579 9.74264L10.4142 6.91421" stroke="#fff" stroke-width="1.2" stroke-linecap="round" stroke-linejoin="round"/></svg><svg height="12" viewBox="0 0 22 16" width="16" x="4" y="24"><path d="M11 5C10.2044 5 9.44129 5.31607 8.87868 5.87868C8.31607 6.44129 8 7.20435 8 8C8 8.79565 8.31607 9.55871 8.87868 10.1213C9.44129 10.6839 10.2044 11 11 11C11.7956 11 12.5587 10.6839 13.1213 10.1213C13.6839 9.55871 14 8.79565 14 8C14 7.20435 13.6839 6.44129 13.1213 5.87868C12.5587 5.31607 11.7956 5 11 5ZM11 13C9.67392 13 8.40215 12.4732 7.46447 11.5355C6.52678 10.5979 6 9.32608 6 8C6 6.67392 6.52678 5.40215 7.46447 4.46447C8.40215 3.52678 9.67392 3 11 3C12.3261 3 13.5979 3.52678 14.5355 4.46447C15.4732 5.40215 16 6.67392 16 8C16 9.32608 15.4732 10.5979 14.5355 11.5355C13.5979 12.4732 12.3261 13 11 13V13ZM11 0.5C6 0.5 1.73 3.61 0 8C1.73 12.39 6 15.5 11 15.5C16 15.5 20.27 12.39 22 8C20.27 3.61 16 0.5 11 0.5Z" fill="#808191"/></svg><svg height="12" viewBox="0 0 22 16" width="16" x="4" y="40"><path d="M11 5C10.2044 5 9.44129 5.31607 8.87868 5.87868C8.31607 6.44129 8 7.20435 8 8C8 8.79565 8.31607 9.55871 8.87868 10.1213C9.44129 10.6839 10.2044 11 11 11C11.7956 11 12.5587 10.6839 13.1213 10.1213C13.6839 9.55871 14 8.79565 14 8C14 7.20435 13.6839 6.44129 13.1213 5.87868C12.5587 5.31607 11.7956 5 11 5ZM11 13C9.67392 13 8.40215 12.4732 7.46447 11.5355C6.52678 10.5979 6 9.32608 6 8C6 6.67392 6.52678 5.40215 7.46447 4.46447C8.40215 3.52678 9.67392 3 11 3C12.3261 3 13.5979 3.52678 14.5355 4.46447C15.4732 5.40215 16 6.67392 16 8C16 9.32608 15.4732 10.5979 14.5355 11.5355C13.5979 12.4732 12.3261 13 11 13V13ZM11 0.5C6 0.5 1.73 3.61 0 8C1.73 12.39 6 15.5 11 15.5C16 15.5 20.27 12.39 22 8C20.27 3.61 16 0.5 11 0.5Z" fill="#FFF"/></svg><svg height="12" viewBox="0 0 20 19" width="16" x="4" y="56"><path d="M10 18.35L8.55 17.03C3.4 12.36 0 9.27 0 5.5C0 2.41 2.42 0 5.5 0C7.24 0 8.91 0.81 10 2.08C11.09 0.81 12.76 0 14.5 0C17.58 0 20 2.41 20 5.5C20 9.27 16.6 12.36 11.45 17.03L10 18.35Z" fill="#808191"/></svg><svg height="12" viewBox="0 0 20 19" width="16" x="4" y="72"><path d="M10 18.35L8.55 17.03C3.4 12.36 0 9.27 0 5.5C0 2.41 2.42 0 5.5 0C7.24 0 8.91 0.81 10 2.08C11.09 0.81 12.76 0 14.5 0C17.58 0 20 2.41 20 5.5C20 9.27 16.6 12.36 11.45 17.03L10 18.35Z" fill="#fff"/></svg><svg height="14" viewBox="0 0 14 14" width="14" x="4" y="88"><g opacity=".5" stroke="#808191" stroke-width="1.5" stroke-linecap="round" stroke-linejoin="round"><path fill-rule="evenodd" clip-rule="evenodd" d="M5.91314 10.8263C8.6266 10.8263 10.8263 8.6266 10.8263 5.91314C10.8263 3.19969 8.6266 1 5.91314 1C3.19969 1 1 3.19969 1 5.91314C1 8.6266 3.19969 10.8263 5.91314 10.8263Z" fill="#fff"/><path d="M9.7193 9.71889L12.8074 12.807"/></g></svg><svg height="14" viewBox="0 0 14 14" width="14" x="4" y="106"><g opacity=".5" stroke="#808191" stroke-width="1.5" stroke-linecap="round" stroke-linejoin="round"><path fill-rule="evenodd" clip-rule="evenodd" d="M5.91314 10.8263C8.6266 10.8263 10.8263 8.6266 10.8263 5.91314C10.8263 3.19969 8.6266 1 5.91314 1C3.19969 1 1 3.19969 1 5.91314C1 8.6266 3.19969 10.8263 5.91314 10.8263Z" fill="#353340"/><path d="M9.7193 9.71889L12.8074 12.807"/></g></svg></svg>